<svg version="1.1" viewBox="0.0 0.0 190.1784776902887 100.0" fill="none" stroke="none" stroke-linecap="square" stroke-miterlimit="10" xmlns:xlink="http://www.w3.org/1999/xlink" xmlns="http://www.w3.org/2000/svg"><clipPath id="p.0"><path d="m0 0l190.17848 0l0 100.0l-190.17848 0l0 -100.0z" clip-rule="nonzero"/></clipPath><g clip-path="url(#p.0)"><path fill="#000000" fill-opacity="0.0" d="m0 0l190.17848 0l0 100.0l-190.17848 0z" fill-rule="evenodd"/><path fill="#000000" fill-opacity="0.0" d="m7.6233597 21.716536l174.92914 0l0 56.566925l-174.92914 0z" fill-rule="evenodd"/><path fill="#000000" d="m17.99836 53.109657l2.734375 -0.25q0.203125 1.65625 0.90625 2.71875q0.71875 1.046875 2.21875 1.703125q1.5 0.640625 3.359375 0.640625q1.671875 0 2.9375 -0.484375q1.265625 -0.5 1.890625 -1.359375q0.625 -0.859375 0.625 -1.875q0 -1.03125 -0.609375 -1.796875q-0.59375 -0.78125 -1.96875 -1.3125q-0.875 -0.34375 -3.90625 -1.0625q-3.015625 -0.734375 -4.234375 -1.375q-1.578125 -0.8125 -2.34375 -2.03125q-0.765625 -1.234375 -0.765625 -2.734375q0 -1.671875 0.9375 -3.109375q0.9375 -1.453125 2.75 -2.1875q1.8125 -0.75 4.03125 -0.75q2.4375 0 4.296875 0.78125q1.875 0.78125 2.875 2.3125q1.0 1.53125 1.078125 3.453125l-2.78125 0.21875q-0.234375 -2.09375 -1.53125 -3.15625q-1.28125 -1.0625 -3.8125 -1.0625q-2.640625 0 -3.84375 0.96875q-1.203125 0.96875 -1.203125 2.328125q0 1.1875 0.859375 1.953125q0.828125 0.765625 4.359375 1.5625q3.546875 0.796875 4.875 1.390625q1.90625 0.890625 2.8125 2.25q0.921875 1.34375 0.921875 3.109375q0 1.75 -1.0 3.3125q-1.0 1.546875 -2.890625 2.40625q-1.875 0.859375 -4.21875 0.859375q-2.984375 0 -5.0 -0.859375q-2.0 -0.875 -3.15625 -2.609375q-1.140625 -1.75 -1.203125 -3.953125zm21.35373 7.046875l0 -21.9375l4.359375 0l5.203125 15.53125q0.71875 2.171875 1.046875 3.25q0.375 -1.203125 1.171875 -3.515625l5.25 -15.265625l3.90625 0l0 21.9375l-2.796875 0l0 -18.359375l-6.375 18.359375l-2.625 0l-6.34375 -18.6875l0 18.6875l-2.796875 0zm24.74002 -10.6875q0 -5.46875 2.921875 -8.546875q2.9375 -3.09375 7.578125 -3.09375q3.046875 0 5.484375 1.453125q2.4375 1.453125 3.71875 4.046875q1.28125 2.59375 1.28125 5.890625q0 3.328125 -1.34375 5.96875q-1.34375 2.640625 -3.828125 4.0q-2.46875 1.34375 -5.328125 1.34375q-3.09375 0 -5.53125 -1.5q-2.4375 -1.5 -3.703125 -4.078125q-1.25 -2.59375 -1.25 -5.484375zm2.984375 0.046875q0 3.96875 2.125 6.25q2.140625 2.28125 5.359375 2.28125q3.28125 0 5.390625 -2.296875q2.125 -2.3125 2.125 -6.546875q0 -2.6875 -0.90625 -4.6875q-0.90625 -2.0 -2.65625 -3.09375q-1.734375 -1.09375 -3.90625 -1.09375q-3.078125 0 -5.3125 2.125q-2.21875 2.109375 -2.21875 7.0625zm20.861038 -0.046875q0 -5.46875 2.921875 -8.546875q2.9375 -3.09375 7.578125 -3.09375q3.046875 0 5.484375 1.453125q2.4375 1.453125 3.71875 4.046875q1.28125 2.59375 1.28125 5.890625q0 3.328125 -1.34375 5.96875q-1.34375 2.640625 -3.828125 4.0q-2.46875 1.34375 -5.328125 1.34375q-3.09375 0 -5.53125 -1.5q-2.4375 -1.5 -3.703125 -4.078125q-1.25 -2.59375 -1.25 -5.484375zm2.984375 0.046875q0 3.96875 2.125 6.25q2.140625 2.28125 5.359375 2.28125q3.28125 0 5.390625 -2.296875q2.125 -2.3125 2.125 -6.546875q0 -2.6875 -0.90625 -4.6875q-0.90625 -2.0 -2.65625 -3.09375q-1.734375 -1.09375 -3.90625 -1.09375q-3.078125 0 -5.3125 2.125q-2.21875 2.109375 -2.21875 7.0625zm32.01729 2.03125l0 -2.578125l9.281242 -0.015625l0 8.15625q-2.140625 1.703125 -4.4218674 2.5625q-2.265625 0.859375 -4.65625 0.859375q-3.234375 0 -5.875 -1.375q-2.640625 -1.390625 -4.0 -4.015625q-1.34375 -2.625 -1.34375 -5.859375q0 -3.203125 1.34375 -5.96875q1.34375 -2.78125 3.859375 -4.125q2.515625 -1.34375 5.796875 -1.34375q2.375 0 4.296875 0.765625q1.9218674 0.765625 3.0156174 2.15625q1.09375 1.375 1.65625 3.578125l-2.609375 0.71875q-0.5 -1.671875 -1.234375 -2.625q-0.7343674 -0.96875 -2.0937424 -1.53125q-1.359375 -0.578125 -3.015625 -0.578125q-2.0 0 -3.453125 0.609375q-1.453125 0.59375 -2.34375 1.59375q-0.890625 0.984375 -1.375 2.15625q-0.84375 2.046875 -0.84375 4.421875q0 2.9375 1.0 4.921875q1.015625 1.96875 2.953125 2.921875q1.9375 0.953125 4.09375 0.953125q1.890625 0 3.6875 -0.71875q1.7968674 -0.734375 2.7187424 -1.546875l0 -4.09375l-6.4374924 0zm13.454781 8.609375l0 -21.9375l2.90625 0l0 19.34375l10.796875 0l0 2.59375l-13.703125 0zm17.22142 0l0 -21.9375l15.875 0l0 2.578125l-12.96875 0l0 6.71875l12.140625 0l0 2.578125l-12.140625 0l0 7.46875l13.46875 0l0 2.59375l-16.375 0z" fill-rule="nonzero"/></g></svg>